<svg width="24" height="24" viewBox="0 0 24 24" fill="none" xmlns="http://www.w3.org/2000/svg">
<path fill-rule="evenodd" clip-rule="evenodd" d="M12.9835 14.2404C12.3851 14.5347 11.7119 14.7 11 14.7C8.51472 14.7 6.5 12.6853 6.5 10.2C6.5 7.71472 8.51472 5.7 11 5.7C13.4853 5.7 15.5 7.71472 15.5 10.2C15.5 11.4318 15.0051 12.5479 14.2033 13.3605L17.5396 17.3365L16.3905 18.3007L12.9835 14.2404ZM14.1 10.2C14.1 11.9121 12.7121 13.3 11 13.3C9.28792 13.3 7.9 11.9121 7.9 10.2C7.9 8.48791 9.28792 7.1 11 7.1C12.7121 7.1 14.1 8.48791 14.1 10.2Z" fill="black"/>
</svg>
